HIERARCHY
ROOT Hips
{
	OFFSET 0.000000 0.000000 0.000000
	CHANNELS 6 Xposition Yposition Zposition Zrotation Yrotation Xrotation 
	JOINT LHipJoint
	{
		OFFSET 0.000000 0.000000 0.000000
		CHANNELS 3 Zrotation Yrotation Xrotation
		JOINT LeftUpLeg
		{
			OFFSET 1.363060 -1.794630 0.839290
			CHANNELS 3 Zrotation Yrotation Xrotation
			JOINT LeftLeg
			{
				OFFSET 2.448110 -6.726130 0.000000
				CHANNELS 3 Zrotation Yrotation Xrotation
				JOINT LeftFoot
				{
					OFFSET 2.562200 -7.039590 0.000000
					CHANNELS 3 Zrotation Yrotation Xrotation
					JOINT LeftToeBase
					{
						OFFSET 0.157640 -0.433110 2.322550
						CHANNELS 3 Zrotation Yrotation Xrotation
						End Site
						{
							OFFSET 0.000000 0.000000 0.000000
						}
					}
				}
			}
		}
	}
	JOINT RHipJoint
	{
		OFFSET 0.000000 0.000000 0.000000
		CHANNELS 3 Zrotation Yrotation Xrotation
		JOINT RightUpLeg
		{
			OFFSET -1.305520 -1.794630 0.839290
			CHANNELS 3 Zrotation Yrotation Xrotation
			JOINT RightLeg
			{
				OFFSET -2.542530 -6.985550 0.000000
				CHANNELS 3 Zrotation Yrotation Xrotation
				JOINT RightFoot
				{
					OFFSET -2.568260 -7.056230 0.000000
					CHANNELS 3 Zrotation Yrotation Xrotation
					JOINT RightToeBase
					{
						OFFSET -0.164730 -0.452590 2.363150
						CHANNELS 3 Zrotation Yrotation Xrotation
						End Site
						{
							OFFSET 0.000000 0.000000 0.000000
						}
					}
				}
			}
		}
	}
}
MOTION
Frames: 25
Frame Time: 0.008333
13.818347 15.367778 2.550162 21.573353 -88.552173 22.747916 -8.936765 -0.113681 5.015631 -9.067520 -10.323018 -78.986229 -1.111568 3.485313 57.065209 3.767001 9.738500 -26.144169 -3.093300 0.000000 -41.352300 8.717032 0.956468 4.151369 7.629387 2.283729 -79.730629 1.655258 -5.264435 58.765092 -2.102784 -2.269833 -22.395484 0.985400 0.000000 -59.508100
13.824815 15.285434 2.529603 21.546083 -88.494652 23.256142 -8.936307 -0.184676 5.031308 -8.869578 -10.491085 -80.296004 -1.016426 3.649357 58.446526 3.791483 9.718601 -26.600378 -3.179100 -0.000000 -41.373899 8.697277 1.031674 4.194945 7.565641 2.564029 -80.986498 1.522351 -5.421047 60.187882 -2.189722 -2.465385 -23.019112 1.080400 0.000000 -59.217800
13.830724 15.202595 2.508840 22.134645 -88.401986 23.133362 -8.921067 -0.249041 5.047222 -8.695256 -10.696431 -81.562039 -0.919194 3.804889 59.797484 3.816763 9.708598 -27.041185 -3.264600 0.000000 -41.386700 8.693061 1.118178 4.237366 7.455899 2.803075 -82.212385 1.385544 -5.575665 61.596531 -2.281478 -2.678185 -23.668390 1.184500 -0.000000 -58.911800
13.836262 15.119691 2.488207 23.209543 -88.280456 22.508295 -8.893081 -0.309266 5.060378 -8.541517 -10.934731 -82.780160 -0.820192 3.951606 61.115609 3.843109 9.710056 -27.468399 -3.350800 -0.000000 -41.383200 8.701916 1.215059 4.276530 7.302107 3.003534 -83.406595 1.245084 -5.728269 62.987948 -2.375028 -2.901151 -24.328542 1.295300 0.000000 -58.577000
13.841234 15.036993 2.467909 24.668062 -88.135143 21.494234 -8.854271 -0.365934 5.074858 -8.402102 -11.209587 -83.961740 -0.719330 4.088652 62.394960 3.872230 9.728424 -27.880660 -3.438500 0.000000 -41.357500 8.721830 1.319665 4.318670 7.099021 3.177415 -84.585359 1.099038 -5.878270 64.360406 -2.468871 -3.136116 -24.975343 1.410400 0.000000 -58.254700
13.845646 14.954817 2.448204 26.367012 -87.972790 20.239380 -8.807755 -0.421126 5.091651 -8.269474 -11.517753 -85.113627 -0.616558 4.216142 63.633095 3.905100 9.767464 -28.278071 -3.528701 0.000000 -41.306401 8.749185 1.429361 4.365959 6.848019 3.334492 -85.755938 0.946944 -6.024750 65.710020 -2.561469 -3.381881 -25.592323 1.527400 -0.000001 -57.960401
13.849610 14.873446 2.429408 28.070575 -87.806237 18.983514 -8.759270 -0.478185 5.109778 -8.131329 -11.844376 -86.242934 -0.511896 4.335751 64.831454 3.941607 9.826941 -28.663069 -3.621799 0.000000 -41.228900 8.777415 1.540260 4.418346 6.560356 3.491766 -86.916203 0.789713 -6.165186 67.027924 -2.652275 -3.638231 -26.169043 1.645100 -0.000000 -57.691200
13.853209 14.793153 2.411658 29.674625 -87.644193 17.834625 -8.711501 -0.538023 5.130791 -7.977542 -12.182389 -87.358835 -0.404993 4.448200 65.989769 3.982441 9.909712 -29.035386 -3.718500 -0.000000 -41.126900 8.803161 1.650082 4.477468 6.243147 3.660606 -88.069649 0.627984 -6.298053 68.308015 -2.741314 -3.906409 -26.697786 1.762600 0.000000 -57.462100
13.856531 14.714100 2.394984 31.108663 -87.494513 16.865805 -8.666297 -0.601214 5.155118 -7.800078 -12.524074 -88.468148 -0.295604 4.554274 67.108872 4.028033 10.017669 -29.395237 -3.819300 -0.000000 -41.003600 8.823825 1.757301 4.543553 5.904497 3.849833 -89.217177 0.462992 -6.422188 69.545013 -2.829025 -4.186960 -27.177558 1.879500 -0.000000 -57.272000
13.859584 14.636406 2.379366 32.324233 -87.364141 16.127548 -8.625135 -0.667933 5.182940 -7.591831 -12.861140 -89.575762 -0.183468 4.654751 68.190348 4.078459 10.151705 -29.742123 -3.924400 0.000001 -40.863900 8.837427 1.860615 4.615870 5.554390 4.065909 -90.356316 0.296495 -6.536598 70.733684 -2.916414 -4.480837 -27.612596 1.996600 0.000000 -57.114900
13.862471 14.560108 2.364653 33.314483 -87.256935 15.626568 -8.588376 -0.737966 5.214148 -7.349047 -13.188129 -90.684234 -0.068454 4.750151 69.236193 4.133679 10.311968 -30.075983 -4.034100 0.000000 -40.711800 8.843189 1.959502 4.693224 5.200539 4.310797 -91.484773 0.130242 -6.641039 71.870882 -3.004423 -4.787949 -28.010109 2.114700 0.000001 -56.980799
13.865369 14.485346 2.350704 34.085109 -87.174521 15.352320 -8.556002 -0.811351 5.246933 -7.071676 -13.499329 -91.789991 0.049246 4.840956 70.248629 4.193160 10.496952 -30.397371 -4.148300 -0.000000 -40.549200 8.840815 2.053995 4.772112 4.851855 4.581668 -92.595172 -0.033752 -6.735881 72.955389 -3.093633 -5.106184 -28.380731 2.234900 -0.000000 -56.853100
13.867964 14.411958 2.337191 34.725786 -87.112505 15.220249 -8.526230 -0.886096 5.284484 -6.761781 -13.801284 -92.897458 0.169387 4.926439 71.226214 4.257268 10.706864 -30.704264 -4.266900 0.000000 -40.378301 8.832577 2.144074 4.855375 4.504178 4.874128 -93.694898 -0.195230 -6.821978 73.988763 -3.185244 -5.437181 -28.731227 2.358300 0.000000 -56.730500
13.870715 14.340158 2.323918 35.276774 -87.067464 15.176936 -8.497961 -0.963009 5.320671 -6.428278 -14.089472 -93.990353 0.290860 5.007045 72.172146 4.324431 10.936006 -31.000465 -4.389700 0.000000 -40.193201 8.819421 2.231310 4.934719 4.166536 5.174304 -94.768389 -0.351907 -6.901297 74.974092 -3.277877 -5.771406 -29.075035 2.484901 0.000000 -56.583399
13.873166 14.269723 2.310657 35.831547 -87.032065 15.135055 -8.469300 -1.040036 5.358713 -6.076137 -14.373221 -95.071353 0.412846 5.081904 73.084283 4.394590 11.181473 -31.285982 -4.516100 0.000000 -39.990700 8.804265 2.315707 5.013521 3.831499 5.475189 -95.824107 -0.504242 -6.975125 75.915348 -3.371723 -6.108250 -29.415284 2.614800 -0.000000 -56.413800
13.875337 14.200713 2.297239 36.470009 -86.998816 15.009596 -8.438276 -1.116481 5.397517 -5.714422 -14.658026 -96.133042 0.534076 5.150614 73.962533 4.466800 11.437540 -31.563740 -4.645600 -0.000000 -39.762000 8.789711 2.398167 5.090524 3.495862 5.764328 -96.861128 -0.652064 -7.045441 76.817602 -3.465384 -6.441170 -29.756402 2.747100 -0.000000 -56.213200
13.877267 14.133166 2.283544 37.277196 -86.959664 14.710116 -8.402740 -1.192106 5.433436 -5.355138 -14.948891 -97.163556 0.652866 5.212910 74.807048 4.539758 11.697127 -31.838243 -4.777700 0.000000 -39.497800 8.778552 2.480292 5.161641 3.158425 6.025953 -97.874214 -0.795008 -7.114763 77.687316 -3.556202 -6.759539 -30.101955 2.879700 -0.000000 -55.974200
13.878712 14.067074 2.269597 38.303555 -86.908200 14.186814 -8.361614 -1.265968 5.467133 -5.004951 -15.252123 -98.160845 0.767875 5.268587 75.616997 4.612629 11.953604 -32.113456 -4.911700 0.000000 -39.189401 8.772828 2.562219 5.228288 2.813837 6.252198 -98.867392 -0.933718 -7.184452 78.529168 -3.642486 -7.057703 -30.449640 3.010299 -0.000000 -55.702700
13.879627 14.002502 2.255516 39.550536 -86.841213 13.435563 -8.314935 -1.338137 5.496773 -4.669799 -15.568220 -99.120650 0.877890 5.318291 76.393624 4.684141 12.199656 -32.394037 -5.046600 0.000000 -38.831399 8.773054 2.644312 5.288966 2.462121 6.437049 -99.838933 -1.068236 -7.255605 79.346795 -3.722105 -7.328348 -30.797167 3.136500 -0.000000 -55.404300
13.879669 13.939322 2.241420 41.063269 -86.751620 12.415355 -8.261953 -1.406915 5.526056 -4.354135 -15.907699 -100.047453 0.982068 5.361592 77.134617 4.754507 12.432732 -32.681497 -5.182200 -0.000000 -38.419900 8.781141 2.726189 5.348527 2.093789 6.573848 -100.800047 -1.200004 -7.329182 80.144430 -3.793796 -7.568565 -31.137780 3.255500 -0.000000 -55.094300
13.878995 13.877712 2.227667 42.701670 -86.647510 11.260937 -8.206225 -1.474230 5.549835 -4.057514 -16.254369 -100.937127 1.079937 5.401259 77.846465 4.821424 12.643717 -32.981028 -5.316900 0.000000 -37.959900 8.793310 2.807665 5.401501 1.722052 6.669894 -101.738654 -1.327883 -7.404520 80.921789 -3.856245 -7.773650 -31.469736 3.365600 -0.000000 -54.782300
13.877206 13.817466 2.214262 44.537490 -86.519842 9.906941 -8.146429 -1.537798 5.573437 -3.784087 -16.623222 -101.797877 1.171294 5.436452 78.526075 4.886480 12.836515 -33.290759 -5.451200 -0.000000 -37.454200 8.812060 2.888343 5.454360 1.334787 6.716807 -102.670412 -1.453656 -7.482689 81.682971 -3.908900 -7.943192 -31.786518 3.464500 -0.000001 -54.485200
13.874377 13.758621 2.201732 46.354096 -86.384716 8.567419 -8.087912 -1.599587 5.593556 -3.525034 -16.989564 -102.632333 1.257067 5.470600 79.182612 4.947714 13.005498 -33.612095 -5.583300 0.000000 -36.919200 8.831648 2.966977 5.503142 0.950898 6.734843 -103.582738 -1.575906 -7.561381 82.423857 -3.952747 -8.080756 -32.086399 3.552700 0.000000 -54.214500
13.870420 13.701077 2.190084 48.149473 -86.242661 7.246148 -8.030761 -1.658997 5.611786 -3.280142 -17.354613 -103.446879 1.338004 5.504149 79.817891 5.006070 13.155398 -33.941287 -5.713300 -0.000000 -36.369800 8.852096 3.043325 5.550182 0.569023 6.726104 -104.482176 -1.695360 -7.640701 83.145876 -3.988723 -8.190410 -32.367379 3.630499 0.000000 -53.982800
13.865357 13.644713 2.179564 49.825938 -86.103081 6.040036 -7.977247 -1.716638 5.628369 -3.042794 -17.706313 -104.247316 1.415618 5.538677 80.437993 5.061573 13.289210 -34.274663 -5.840700 -0.000000 -35.823400 8.870980 3.116340 5.595503 0.198380 6.704112 -105.365359 -1.811773 -7.719301 83.847312 -4.018793 -8.279627 -32.629053 3.699700 0.000000 -53.796000
